<svg id="Layer_1" class="rotate" data-name="Layer 1" xmlns="http://www.w3.org/2000/svg" viewBox="0 0 78 95"><defs><style>.cls-1{fill:#132d51;}.cls-2{fill:#fdfcf3;}.cls-3{fill:#fff;}.cls-4{fill:#ee3540;}</style></defs><title>burger</title><g id="tML4k9"><g id="_Group_" data-name="&lt;Group&gt;"><path class="cls-1" d="M28.52,83.69A2.65,2.65,0,0,0,30,84a9.13,9.13,0,0,0,2-.33c1.35-.69,1.16-0.14,2.82-0.64,0.84,0.37,1.5-.13,2.19-0.35a2,2,0,0,0,.82,0c0.27-.57.76-0.16,1.24-0.24,0.19,0-.07-0.07.19-0.08A5.14,5.14,0,0,1,40,82.22a2.21,2.21,0,0,0,.21.09,0.41,0.41,0,0,1,.35-0.08,3.79,3.79,0,0,1,.64.22c0.46,0,.95-0.12,1.41-0.13s1,0,1.59-.1c1-.11,1.51-0.49,2.44-0.3,1.45-.59,2.91-0.15,4.47.07s3.28,1.26,5,1.27c0.38,0,.83-0.22,1.27-0.23,2.84-.09,7.15,2.49,8.76.69-0.93-5.1-4-8.08-6.91-11.18-1.47.22-1.52,1.86-2.07,3-2,.23-3.07,1.82-4.61,2.19-0.49.12-.87,0-1.49,0.11s-1.47.49-2.31,0.58c-0.67.06-1.43-.11-2.19,0a7.9,7.9,0,0,1-1.5.46,11,11,0,0,1-2.53-.81,18.07,18.07,0,0,0-2.26-1,19.64,19.64,0,0,0-2.35-.23c-2.65-.26-5.23-1.75-7.37-1.85-1.65-.07-2.87.13-3.92-0.81-3.41-.12-4.17-2.9-6.68-3.91a10.33,10.33,0,0,0-1-1.27c-1.59.09-2.79-.92-4-1.85-1-.78-2.26-1.12-3-2.07a10.66,10.66,0,0,1-1.27-3.11c-0.11,0-.23,0-0.35,0-2.83.41-8.69,0.77-8.77,3.48-0.05,1.76,2.92,2.18,4.39,2.51a36.77,36.77,0,0,1,6,2.19c2,0.87,4.44,1.57,5.61,2.63,2.39,0.87,7.62,6.36,9.12,8A15.35,15.35,0,0,1,28.52,83.69Zm-4.93-3.31c-1.19-1.68-2.16-3.22-2.45-3.69-3.13-2.33-6.57-5-10.37-6.22-0.39,1.75-1.4,4.08-1.84,6.45a39.49,39.49,0,0,0,6,6.34,18.06,18.06,0,0,0,2.65,1.49,61.79,61.79,0,0,0,5.89,3.4c0.29,0.12.87,0.6,1.14,0.74,2.56,1.35,5.18,3.31,8.18,3.92a17.42,17.42,0,0,0,2.07.35c6.82,0.45,13.77-.23,21.54-0.46a20.74,20.74,0,0,0,2.07-8c-3.2-.29-5.74-1.47-8.64-1.61-2.52-.12-5.1.14-7.26,0.23-1,0-2.1-.13-3.11,0s-1.74.51-2.77,0.57c-0.55,0-1.13-.06-1.73,0-2.37.25-4.21,1.95-6.11,1.85s-3.41-2-4.24-3.35A15,15,0,0,1,23.59,80.38ZM59.36,3c3,0.95,5.32,1.6,6.36,3.05a37.75,37.75,0,0,1,6.05,5.12,19.83,19.83,0,0,1,1.43,1.59c1.35,2.15,2.64,6.14,3.86,12.36a10.42,10.42,0,0,1,.47,2.61c-0.19,1.41-1.88,1.85-2.73,2.85,1.12,2.28.84,5.34-.95,6.77a11.26,11.26,0,0,1-.12,2.37A9.48,9.48,0,0,1,72.79,41c-0.88,1.56-.49,3.48-1.07,4.63-0.36.7-1.36,0.92-1.78,1.66-0.71,1.23,0,2.34-.24,4-0.49.92-1.74,1.39-2.14,2.61-0.31.94-.12,1.66-0.59,2.37s-1.35.94-1.66,1.66c-0.23.53-.11,1.23-0.36,1.78-0.33.75-1.33,1.18-1.66,1.9-0.55,1.2.09,2.77-.59,3.92-0.78,1.3-2.26,1.21-2.61,2.73a14.82,14.82,0,0,1-.24,3.09c3.15,3.72,6.75,7.55,8,12.82-1.44,2.06-5.52.76-7.84,0.59A28.5,28.5,0,0,1,57.59,94c-3.43.84-7,.8-10.57,0.95a68.69,68.69,0,0,1-13.66-.59,22.47,22.47,0,0,1-7.84-3,102.51,102.51,0,0,1-10.09-5.7c-0.64-.45-1.34-0.79-1.9-1.19-1-.71-1.67-1.89-2.61-2.73-1.6-1.43-3.47-2.48-4.63-3.92C7.23,75.22,8.19,72,9,69.73c-1.25-.29-2.57-1.17-4.27-1.54-1.93-.43-4.08,0-4.75-1.54-0.12-4.84,5.85-4.95,9.74-5.94,0.7-3.28,3.06-4.26,6.41-3.92,1.45,0.14,2.46,1,4.16.59,2.5-.57,3.73-4,5.11-6.17,1.85-2.88,3.52-5.63,7.48-6.41,0.75-1.63.5-4.25,0.95-6.17-2,.22-4,0.88-5.94-0.24s-1.57-1.76-2.49-3c-1-.5-2.38-0.14-3.44-0.47-1.44-.45-2.12-1.57-2.61-3.09-1.75-.47-3.66-0.77-4.63-2a1.93,1.93,0,0,1,.47-1.31c-0.52-1-1.54-1.51-1.54-2.73,0-2.3,2.79-2.37,4.51-1.19,1.52-2.75,2.28-6.27,3.68-9.14A79.3,79.3,0,0,1,27.91,8.7c1.09-1,2.41-1.85,3.56-2.85a39.32,39.32,0,0,1,3.44-3C37.29,1.28,41.3.4,44.65,0A6.77,6.77,0,0,1,46,0,43.91,43.91,0,0,1,59.36,3ZM26.25,61.19c1.8,0.38,3.48.6,4.74,1.9,0.91-.53,1.42.24,2,0.47a7.12,7.12,0,0,0,2.61.12c1.08,0.08,1.9,1,3,1.07,0.68,0.06,1.39-.33,2-0.24,1.23,0.18,2.22,1.71,3.68.95,0.29-.82,1-1.21,1.19-2.14,2.57-2.13,3-4.2,4.42-6.42,0.14-1.53,1.08-4.73-.15-6.05-5.86-2.17-8.85,3.75-13.42,4.39A13.11,13.11,0,0,0,40.09,52a4.65,4.65,0,0,0-.67-3.31,8.68,8.68,0,0,0-3.8-2.85,7.9,7.9,0,0,0-6.06,1.78,23.09,23.09,0,0,0-1.42,1.9c-2.31,2.71-3.82,6.51-6.29,8.67,1.45,0.61,2.62,2.24,4.27,2.85A0.41,0.41,0,0,1,26.25,61.19Zm50.13-34a26.57,26.57,0,0,0-1-4.95,20.87,20.87,0,0,0-3-7A44.91,44.91,0,0,0,65.7,7.6C63.64,5.71,51.6,1.1,46.48,1.21a13.87,13.87,0,0,0-2.76,0C37.83,2.27,38.61,2.46,34,5.34a24.42,24.42,0,0,0-6.1,5,61.52,61.52,0,0,0-4.41,5.56c-1.93,3.81-2.72,7.17-4.28,11.35,1.47,1.61,3,2.16,5.11,3.13,0.73,0.34,2.4,1.46,3.09,1.77a14.15,14.15,0,0,0,2.76.73c1.35,0.36,2.51.28,3.79,0.54,0.66,0.14,1.81.22,2.56,0.37,1.62,0.33,4.34.22,6.14,0.41,5.1,0.52,9.41,1.44,12.12,1,0.63-.1,1.87-0.36,2.6-0.41a50.91,50.91,0,0,0,6.33-.6c-0.08-1.23-2-3.24-1.19-4.63,1.35,0.87,3.07,2,5,1.9,0.33-.48-0.9-1-0.47-1.54,0.69,0.13,1.58-.3,2.37.12,0,0.67-.92.43-1.07,0.95a1.08,1.08,0,0,1,.83.83c0.15,0.59-.37.5-0.36,0.95a24.49,24.49,0,0,0,4.63-2.26C74.62,29.75,76.16,28.65,76.37,27.22Zm-2,6.65a2.7,2.7,0,0,0-.59-2.61c-2.49,1.39-4.94,2.82-8.31,3.32,0.57,1.88,4,.88,4.16,3.21-0.23.4-.76-0.21-0.95,0.12,0.37,0.94,1.17,3.27-.24,3.68-1.79.53-2.62-1.88-3.92-1.78-0.61,0-1,1.1-2.26,1.66-0.51.22-1.18,0.14-1.54,0.36-1,.57-0.55,1.53-0.95,2.61C59.12,46.08,57,46,57.95,48.12a10.08,10.08,0,0,1-1.66.95c-0.95,1.13-.34,3.17-1.19,4.39-0.38.55-1.29,0.78-1.54,1.42-0.31.8,0.11,1.7-.47,2.37a11.64,11.64,0,0,0-4,3.09c-0.85,1.25-1.25,3.07-2.85,3.44-0.78,1.23-1.21,2.8-2.85,3a10.8,10.8,0,0,1-1.78-.36c-0.87-.12-1.89.12-2.61,0-1.31-.22-2.41-1.34-3.44-1.31-0.57,0-.6.51-1.31,0.36s-0.89-1-1.78-1.19c-0.41-.1-1,0.15-1.54,0s-1.24-1.14-2-1.42-1.66-.06-2.49-0.36C25.1,62,24,60.85,22.8,60.12c-2.45-1.52-8.07-4.35-10.69-1.42-1.38,1.54-1.2,4.66.24,5.82s3.09,1.07,3.8,2.49c3.66-.47,4.34,3.64,7.12,4a6.15,6.15,0,0,1,.36,1.07c0.94,0.38,2.46,1,3.44.59A48.17,48.17,0,0,0,33,74.13c0.57,0.13,1.07.54,1.66,0.71,2.76,0.81,6,.21,7.84,2.14,0.94,0,2.18.95,3.09,0,2,0.62,3.42-.45,5-0.47a8.82,8.82,0,0,0,1.07.12c1.3-.17,2.09-1.32,3.21-1.78,0.89-.37,2-0.16,2.73-0.83-0.09-1.36.29-2.24,1.31-2.49,0.1-2.15.24-4.27,1.19-5.58A3.91,3.91,0,0,0,62,64.27a5.84,5.84,0,0,1,2.14-5.46c-0.3-1.8,1.41-2.34,2-3.44s0.29-2.24.95-3.44a5.78,5.78,0,0,0,1.66-1.42c0.14-1.26-.19-2.32.47-3.68,0.38-.78,1.42-1.22,1.66-2s-0.07-1.93.12-2.85c0.23-1.11,1.33-1.88,1.66-3a19.25,19.25,0,0,0,0-2.14c0.16-.81,1.15-1.11,1.54-2C74.27,34.7,74.27,34.14,74.34,33.87Zm-6.77,6.65c0.61-1,0-2.33-.24-3.21-1.45-.37-2.14-1.5-3.21-2.26-8.37,3.58-20.45,1.45-30,.47-6.74-1.65-12.73-4.05-17-8.19,0.65-.54.75-1.63,1.19-2.37-1.75-.42-4-1.38-4,0.71,0,1.06,1.29,1.59,1.42,2.61a12.89,12.89,0,0,0,0,1.44,2.69,2.69,0,0,0,1.53.7,11.77,11.77,0,0,1,2.46.95c0.57,0.39.37,1.16,0.83,1.9,0.94,1.49,3,.93,4.87,1.54,1.39,0.47,1.86,2.64,3,3.21a7,7,0,0,0,3.56.47c0.82-.08,1.53-0.61,2.37-0.47,1.64,0.26,2.61,2.51,4.16,3.21C41,42.38,42,39.53,44.53,40.17a7.45,7.45,0,0,0,4.75,1.66c0.45-2.73,2.71-.4,4.27-0.83,0.79-.22,1.41-1.81,2.26-1.9,1-.11,2.41,1.51,3.8,1.54,1.81,0,2.59-2.21,3.92-2.26C65.34,38.32,66.27,40.58,67.57,40.52Zm-0.22-8.15c-1.81.23-2.82-.51-4-0.95a3.4,3.4,0,0,0,1.32,1.73C65.47,32.7,66.92,33.18,67.34,32.37Z"/><path class="cls-2" d="M75.38,22.27a26.57,26.57,0,0,1,1,4.95c-0.21,1.43-1.75,2.53-2.94,3.27a24.49,24.49,0,0,1-4.63,2.26c0-.45.51-0.36,0.36-0.95A1.08,1.08,0,0,0,68.32,31c0.15-.52,1.07-0.28,1.07-0.95-0.8-.42-1.68,0-2.37-0.12-0.43.59,0.81,1.06,0.47,1.54-1.92.09-3.64-1-5-1.9-0.85,1.4,1.11,3.4,1.19,4.63a50.91,50.91,0,0,1-6.33.6c-0.73.05-2,.31-2.6,0.41-2.71.45-7-.47-12.12-1-1.8-.19-4.52-0.08-6.14-0.41-0.75-.15-1.89-0.23-2.56-0.37-1.28-.26-2.44-0.18-3.79-0.54a14.15,14.15,0,0,1-2.76-.73C26.7,31.82,25,30.7,24.3,30.36c-2.1-1-3.64-1.52-5.11-3.13,1.56-4.18,2.36-7.54,4.28-11.35a61.52,61.52,0,0,1,4.41-5.56,24.42,24.42,0,0,1,6.1-5c4.62-2.87,3.84-3.06,9.73-4.13a13.87,13.87,0,0,1,2.76,0C51.6,1.1,63.64,5.71,65.7,7.6a44.91,44.91,0,0,1,6.66,7.68A20.87,20.87,0,0,1,75.38,22.27Zm-5.56-7a2.18,2.18,0,0,0-.59-1.78,1.25,1.25,0,0,0-1.54,1.07C67.92,15.41,69.07,16.19,69.82,15.23Zm-6.89.2c2.27,0.16,1.29-2.46,0-2.37S61.94,14.75,62.93,15.43ZM58.48,9.92c1.35-.25.26-2.95-0.95-1.66C57.23,9,57.72,10.06,58.48,9.92ZM55.69,5.85a6.47,6.47,0,0,0,.83-0.47C56.3,2,53.35,4.74,55.69,5.85Zm-0.21,10A2.32,2.32,0,0,0,55,14.29,1.22,1.22,0,0,0,53.7,15c0.19,0.56.22,1.28,0.83,1.42C54.85,16.23,55.19,16.06,55.48,15.83ZM49,9.41c2.66-.16-0.51-3.33-0.83-1.31A1.69,1.69,0,0,0,49,9.41ZM42.46,6.3c1.14,0.08,1.41-2,.12-1.9A1,1,0,0,0,42.46,6.3Zm-2,7.74c1.22,1.79,1.71,4.65,3.32,5.7A97.59,97.59,0,0,0,39.54,7.87c-1-.22-1.42,1.18-1.9,1.9C38.5,11.26,39.47,12.54,40.49,14ZM37.29,24.37c1-1.89,2.87-10.15-1.54-9a3.52,3.52,0,0,0-1.19.59C33,17.25,30.78,21.13,30.16,24c-0.65,3-.16,7,2.85,5.11A17,17,0,0,0,37.29,24.37ZM33.61,12.74c-0.2-1.35-.12-3-0.83-3.8-0.88.83-1.61,1.91-2.49,2.85S28.19,13.43,28,14.64C30,14.16,31.66,13.29,33.61,12.74Zm-4.27,8.79c0.24-2-.59-3.17-1.9-3a2.61,2.61,0,0,0-1.54.95c-0.63.82-2,3.78-1.66,5.7A1.68,1.68,0,0,0,27,26.39,11.09,11.09,0,0,0,29.33,21.52Z"/><path class="cls-2" d="M73.74,31.26a2.7,2.7,0,0,1,.59,2.61c-0.06.27-.06,0.83-0.12,0.95-0.4.91-1.38,1.21-1.54,2a19.25,19.25,0,0,1,0,2.14c-0.34,1.09-1.43,1.86-1.66,3-0.19.92,0.15,1.95-.12,2.85s-1.29,1.24-1.66,2c-0.66,1.37-.34,2.42-0.47,3.68a5.78,5.78,0,0,1-1.66,1.42c-0.66,1.2-.4,2.44-0.95,3.44s-2.32,1.64-2,3.44A5.84,5.84,0,0,0,62,64.27a3.91,3.91,0,0,1-1.9,1.66c-0.95,1.31-1.08,3.43-1.19,5.58-1,.25-1.4,1.14-1.31,2.49-0.77.67-1.84,0.46-2.73,0.83-1.12.47-1.9,1.61-3.21,1.78a8.82,8.82,0,0,1-1.07-.12c-1.56,0-3,1.1-5,.47-0.91.95-2.15,0-3.09,0-1.82-1.92-5.08-1.33-7.84-2.14-0.59-.17-1.09-0.58-1.66-0.71a48.17,48.17,0,0,1-5.94-1.42c-1,.4-2.51-0.21-3.44-0.59A6.15,6.15,0,0,0,23.28,71c-2.79-.4-3.47-4.51-7.12-4-0.71-1.42-2.43-1.39-3.8-2.49s-1.61-4.27-.24-5.82c2.61-2.93,8.24-.09,10.69,1.42C24,60.85,25.1,62,26.36,62.49c0.84,0.3,1.79.09,2.49,0.36s1.3,1.24,2,1.42,1.13-.1,1.54,0c0.89,0.21,1,1.11,1.78,1.19s0.73-.38,1.31-0.36c1,0,2.13,1.08,3.44,1.31,0.72,0.12,1.74-.12,2.61,0a10.8,10.8,0,0,0,1.78.36c1.64-.17,2.07-1.74,2.85-3,1.6-.38,2-2.19,2.85-3.44a11.64,11.64,0,0,1,4-3.09c0.58-.67.16-1.57,0.47-2.37,0.25-.65,1.16-0.87,1.54-1.42,0.85-1.23.24-3.27,1.19-4.39a10.08,10.08,0,0,0,1.66-.95c-1-2.15,1.17-2,1.78-3.68,0.4-1.08,0-2,.95-2.61,0.37-.22,1-0.13,1.54-0.36,1.27-.56,1.64-1.62,2.26-1.66,1.3-.09,2.13,2.31,3.92,1.78,1.41-.42.61-2.74,0.24-3.68,0.19-.33.72,0.28,0.95-0.12-0.13-2.33-3.58-1.33-4.16-3.21C68.8,34.08,71.25,32.65,73.74,31.26ZM61.87,44.56a0.56,0.56,0,0,0,.83.59A0.56,0.56,0,0,0,61.87,44.56Zm-0.24,5.11c0-.31-0.16-0.39-0.47-0.36C61.06,49.74,61.41,49.9,61.63,49.67ZM55,70.45a0.61,0.61,0,0,0-.47-0.95A0.55,0.55,0,0,0,55,70.45ZM54.27,58.69c-0.27.45,0.45,1.06,0.95,0.71C55.19,58.76,54.88,58.45,54.27,58.69ZM46.55,70.33a0.59,0.59,0,1,0-.95-0.71A0.86,0.86,0,0,0,46.55,70.33ZM34.08,68.55c-1.3-2.48-1.73,1.53,0,0h0ZM21.61,64c0-.81-1.2-1.17-1.31-0.24A0.8,0.8,0,0,0,21.61,64Z"/><path class="cls-1" d="M73.2,12.73a19.83,19.83,0,0,0-1.43-1.59A5,5,0,0,1,73.2,12.73Z"/><path class="cls-1" d="M69.23,13.45a2.18,2.18,0,0,1,.59,1.78c-0.76,1-1.9.18-2.14-.71A1.25,1.25,0,0,1,69.23,13.45Zm0,1.31A1.22,1.22,0,0,0,69,14H68.52a1.64,1.64,0,0,0,.12.95C69,15.1,69,14.81,69.23,14.76Z"/><path class="cls-3" d="M69,14a1.22,1.22,0,0,1,.24.71c-0.23,0-.21.34-0.59,0.24A1.64,1.64,0,0,1,68.52,14H69Z"/><path class="cls-2" d="M67.33,37.32c0.22,0.88.85,2.25,0.24,3.21-1.3.06-2.23-2.21-4-2.14-1.33,0-2.11,2.3-3.92,2.26-1.39,0-2.77-1.66-3.8-1.54-0.85.09-1.46,1.68-2.26,1.9-1.57.43-3.83-1.89-4.27,0.83a7.45,7.45,0,0,1-4.75-1.66C42,39.53,41,42.38,38.48,41.24,36.93,40.54,36,38.29,34.32,38c-0.84-.13-1.56.39-2.37,0.47A7,7,0,0,1,28.38,38c-1.11-.56-1.58-2.74-3-3.21-1.83-.61-3.93,0-4.87-1.54-0.47-.74-0.26-1.51-0.83-1.9a11.77,11.77,0,0,0-2.46-.95,2.69,2.69,0,0,1-1.53-.7,12.89,12.89,0,0,1,0-1.44c-0.14-1-1.45-1.55-1.42-2.61,0.05-2.09,2.29-1.13,4-.71-0.44.75-.54,1.84-1.19,2.37,4.25,4.14,10.24,6.54,17,8.19,9.59,1,21.68,3.1,30-.47C65.19,35.82,65.88,36.95,67.33,37.32Z"/><path class="cls-3" d="M63.39,31.42c1.14,0.44,2.15,1.18,4,.95-0.42.81-1.87,0.33-2.64,0.78A3.4,3.4,0,0,1,63.39,31.42Z"/><path class="cls-2" d="M66.06,83.72c-1.61,1.8-5.92-.78-8.76-0.69-0.44,0-.89.23-1.27,0.23-1.68,0-3.33-1-5-1.27s-3-.67-4.47-0.07c-0.93-.19-1.47.19-2.44,0.3-0.57.07-1.18,0.08-1.59,0.1s-0.95.12-1.41,0.13a3.79,3.79,0,0,0-.64-0.22,0.41,0.41,0,0,0-.35.08A2.21,2.21,0,0,1,40,82.22a5.14,5.14,0,0,0-.69.09c-0.26,0,0,0-.19.08-0.48.08-1-.33-1.24,0.24a2,2,0,0,1-.82,0c-0.69.21-1.36,0.72-2.19,0.35-1.66.49-1.46-.05-2.82,0.64A9.13,9.13,0,0,1,30,84a2.65,2.65,0,0,1-1.52-.31,15.35,15.35,0,0,0-2-2.93c-1.49-1.64-6.73-7.13-9.12-8C16.25,71.69,13.8,71,11.8,70.13a36.77,36.77,0,0,0-6-2.19c-1.46-.33-4.44-0.75-4.39-2.51,0.08-2.71,5.94-3.07,8.77-3.48,0.11,0,.23,0,0.35,0a10.66,10.66,0,0,0,1.27,3.11c0.73,1,2,1.29,3,2.07,1.25,0.93,2.44,1.94,4,1.85a10.33,10.33,0,0,1,1,1.27c2.51,1,3.27,3.79,6.68,3.91,1,0.94,2.27.73,3.92,0.81,2.14,0.1,4.72,1.59,7.37,1.85a19.64,19.64,0,0,1,2.35.23,18.07,18.07,0,0,1,2.26,1,11,11,0,0,0,2.53.81,7.9,7.9,0,0,0,1.5-.46c0.76-.11,1.51.06,2.19,0C49.5,78.33,50.22,78,51,77.84s1,0,1.49-.11c1.54-.37,2.57-2,4.61-2.19,0.55-1.14.6-2.78,2.07-3C62.08,75.64,65.13,78.62,66.06,83.72Zm-35.9-5.43c0.41,0.07,1,.57,1.31.36C31.16,78.47,30.61,77.92,30.16,78.28ZM9,64.87A8.23,8.23,0,0,0,7.6,63.08C7.35,64,8.41,64.48,9,64.87Z"/><path class="cls-3" d="M62.86,14.12c0.32-.3.9-0.31,0.83,0.36A0.5,0.5,0,0,1,62.86,14.12Z"/><path class="cls-1" d="M62.93,13.05c1.29-.08,2.27,2.54,0,2.37C61.94,14.75,61.78,13.13,62.93,13.05Zm0.76,1.42c0.06-.66-0.51-0.65-0.83-0.36A0.5,0.5,0,0,0,63.69,14.48Z"/><path class="cls-1" d="M62.7,45.15a0.56,0.56,0,0,1-.83-0.59A0.56,0.56,0,0,1,62.7,45.15Z"/><path class="cls-1" d="M61.16,49.31c0.31,0,.51,0,0.47.36C61.41,49.9,61.06,49.74,61.16,49.31Z"/><path class="cls-1" d="M58,8.33c-0.19.18,0,1.2,0.43,1.11C59.07,8.86,58.12,8.39,58,8.33Zm-0.5-.07c1.21-1.29,2.3,1.42.95,1.66C57.72,10.06,57.23,9,57.53,8.26Z"/><path class="cls-3" d="M58,8.33c0.09,0.05,1,.53.43,1.11C58,9.53,57.84,8.51,58,8.33Z"/><path class="cls-2" d="M58.45,84.75a20.74,20.74,0,0,1-2.07,8c-7.77.23-14.72,0.91-21.54,0.46a17.42,17.42,0,0,1-2.07-.35c-3-.61-5.62-2.57-8.18-3.92-0.27-.14-0.85-0.62-1.14-0.74a61.79,61.79,0,0,1-5.89-3.4,18.06,18.06,0,0,1-2.65-1.49,39.49,39.49,0,0,1-6-6.34c0.44-2.37,1.45-4.7,1.84-6.45,3.8,1.27,7.24,3.89,10.37,6.22,0.29,0.47,1.26,2,2.45,3.69a15,15,0,0,0,1,2.06c0.83,1.33,2.31,3.25,4.24,3.35S32.59,84.2,35,83.94c0.6-.06,1.18,0,1.73,0,1-.06,1.9-0.47,2.77-0.57s2.11,0,3.11,0c2.16-.09,4.73-0.36,7.26-0.23C52.71,83.28,55.26,84.46,58.45,84.75Z"/><path class="cls-3" d="M55.57,4.31c0.41,0,.35.44,0.36,0.83C55.39,5.36,55.32,4.49,55.57,4.31Z"/><path class="cls-1" d="M56.52,5.38a6.47,6.47,0,0,1-.83.47C53.35,4.74,56.3,2,56.52,5.38Zm-0.59-.24c0-.39,0-0.84-0.36-0.83C55.32,4.49,55.39,5.36,55.93,5.14Z"/><path class="cls-1" d="M55,14.29a2.32,2.32,0,0,1,.47,1.54c-0.29.22-.63,0.4-0.95,0.59-0.61-.14-0.64-0.87-0.83-1.42A1.22,1.22,0,0,1,55,14.29ZM54.69,15.7c0.47-.13.15-0.86-0.36-0.71C54.33,15.34,54.32,15.71,54.69,15.7Z"/><path class="cls-1" d="M54.51,69.5a0.61,0.61,0,0,1,.47.95A0.55,0.55,0,0,1,54.51,69.5Z"/><path class="cls-1" d="M55.22,59.4c-0.5.35-1.22-.26-0.95-0.71C54.88,58.45,55.19,58.76,55.22,59.4Z"/><path class="cls-3" d="M54.33,15c0.51-.14.83,0.58,0.36,0.71S54.33,15.34,54.33,15Z"/><path class="cls-4" d="M49.76,50.85c1.23,1.33.29,4.52,0.15,6.05-1.46,2.22-1.86,4.28-4.42,6.42-0.18.93-.9,1.32-1.19,2.14-1.46.76-2.45-.77-3.68-0.95-0.63-.09-1.34.3-2,0.24-1.06-.1-1.89-1-3-1.07A7.12,7.12,0,0,1,33,63.56c-0.6-.24-1.11-1-2-0.47-1.26-1.3-2.95-1.52-4.74-1.9a0.41,0.41,0,0,0-.12-0.12c-1.65-.61-2.82-2.24-4.27-2.85,2.47-2.16,4-6,6.29-8.67a23.09,23.09,0,0,1,1.42-1.9,7.9,7.9,0,0,1,6.06-1.78,8.68,8.68,0,0,1,3.8,2.85A4.65,4.65,0,0,1,40.09,52a13.11,13.11,0,0,1-3.76,3.22C40.9,54.6,43.89,48.68,49.76,50.85Z"/><path class="cls-3" d="M49.52,8.58a0.36,0.36,0,0,0-.24.24C48.81,8.76,48.56,8.24,48.92,8,49.39,7.91,49.45,8.25,49.52,8.58Z"/><path class="cls-1" d="M48.21,8.11c0.32-2,3.49,1.15.83,1.31A1.69,1.69,0,0,1,48.21,8.11Zm1.07,0.71a0.36,0.36,0,0,1,.24-0.24C49.45,8.25,49.39,7.91,48.92,8,48.56,8.24,48.81,8.76,49.28,8.82Z"/><path class="cls-1" d="M45.6,69.62a0.59,0.59,0,1,1,.95.71A0.86,0.86,0,0,1,45.6,69.62Z"/><path class="cls-3" d="M42.94,5.11a0.47,0.47,0,0,1-.47.59A0.5,0.5,0,0,1,42.58,5,1,1,0,0,1,42.94,5.11Z"/><path class="cls-1" d="M42.58,4.4c1.29-.14,1,2-0.12,1.9A1,1,0,0,1,42.58,4.4ZM42.46,5.71a0.47,0.47,0,0,0,.47-0.59A1,1,0,0,0,42.58,5,0.5,0.5,0,0,0,42.46,5.71Z"/><path class="cls-1" d="M43.82,19.74c-1.62-1.05-2.11-3.91-3.32-5.7-1-1.5-2-2.79-2.85-4.27,0.47-.72.87-2.12,1.9-1.9A97.59,97.59,0,0,1,43.82,19.74ZM41,13.33a11.19,11.19,0,0,0-1.66-4.27,5.55,5.55,0,0,1-.47.59A19.9,19.9,0,0,0,41,13.33Z"/><path class="cls-3" d="M39.31,9.06A11.19,11.19,0,0,1,41,13.33a19.9,19.9,0,0,1-2.14-3.68A5.55,5.55,0,0,0,39.31,9.06Z"/><path class="cls-1" d="M35.74,15.35c4.42-1.13,2.58,7.13,1.54,9A17,17,0,0,1,33,29.12C30,31,29.51,27.06,30.16,24c0.62-2.89,2.84-6.77,4.39-8.07A3.52,3.52,0,0,1,35.74,15.35ZM31.35,29c3.89-1.92,7.46-8.71,5.46-12.94H36.58A12.92,12.92,0,0,0,31.35,29Z"/><path class="cls-3" d="M36.81,16.06c2,4.23-1.57,11-5.46,12.94a12.92,12.92,0,0,1,5.22-12.94h0.24Z"/><path class="cls-1" d="M34.08,68.55c-1.73,1.53-1.3-2.48,0,0h0Z"/><path class="cls-1" d="M32.78,8.94c0.71,0.84.63,2.45,0.83,3.8-1.94.55-3.56,1.42-5.58,1.9,0.17-1.21,1.42-2,2.26-2.85S31.89,9.76,32.78,8.94Zm-3,4.39c1.29-.46,2.76-0.73,2.85-2.37C31.5,11.07,30.66,12.51,29.81,13.33Z"/><path class="cls-3" d="M32.66,11c-0.09,1.65-1.56,1.92-2.85,2.37C30.66,12.51,31.5,11.07,32.66,11Z"/><path class="cls-1" d="M31.47,78.64c-0.3.21-.9-0.28-1.31-0.36C30.61,77.92,31.16,78.47,31.47,78.64Z"/><path class="cls-1" d="M27.43,18.56c1.31-.2,2.14,1,1.9,3A11.09,11.09,0,0,1,27,26.39a1.68,1.68,0,0,1-2.73-1.19c-0.34-1.92,1-4.88,1.66-5.7A2.61,2.61,0,0,1,27.43,18.56Zm0.71,1.07c-0.17,0-.2-0.2-0.36-0.24a6.24,6.24,0,0,0-2.26,6.41C27.23,24.57,28.09,22.5,28.14,19.62Z"/><path class="cls-3" d="M27.79,19.39c0.16,0,.19.21,0.36,0.24,0,2.88-.91,4.95-2.61,6.17A6.24,6.24,0,0,1,27.79,19.39Z"/><path class="cls-1" d="M20.31,63.8c0.11-.94,1.34-0.57,1.31.24A0.8,0.8,0,0,1,20.31,63.8Z"/><path class="cls-1" d="M7.6,63.08A8.23,8.23,0,0,1,9,64.87C8.41,64.48,7.35,64,7.6,63.08Z"/></g></g></svg>